# xmcd
#
# Track frame offsets:
#	150
#	19152
#	47739
#	79526
#	100000
#	124912
#	140812
#	171609
#	174996
#	202853
#	230885
#	257589
#	285144
#
# Disc length: 4316 seconds
#
# Revision: 1
# Processed by: cddbd v1.5.1PL0 Copyright (c) Steve Scherf et al.
# Submitted via: CDex 1.50Beta5
#
DISCID=af10da0d
DTITLE=Char - Electric guitar Concert Disc 1
DYEAR=1997
DGENRE=Rock
TTITLE0=SOUND OF VISIONS
TTITLE1=SMOKY
TTITLE2=SHININ’YOU,SHININ’DAY
TTITLE3=空模様のかげんが悪くなる前に
TTITLE4=ALL AROUND ME
TTITLE5=逆光線
TTITLE6=LEADING OF THE LEAVING,THE
TTITLE7=KINDESALTER
TTITLE8=気絶するほど悩ましい
TTITLE9=籠の鳥
TTITLE10=SONG IN MY HEART
TTITLE11=SO MUCH IN LOVE
TTITLE12=DAZED
EXTD=
EXTT0=
EXTT1=
EXTT2=
EXTT3=
EXTT4=
EXTT5=
EXTT6=
EXTT7=
EXTT8=
EXTT9=
EXTT10=
EXTT11=
EXTT12=
PLAYORDER=
